/* XPM */

static const char *
pen_data[] = {
  /* width height num_colors chars_per_pixel x_hot y_hot */
  "24 24 4 1 0 0",

  /* colors */
  ". s symbol1 c #000000 m black",
  "# s symbol2 c #888888 m white",
  "a s symbol3 c #444444 m black",
  "  s mask c none",

  /* pixels */
  "                        ",
  "                        ",
  "                        ",
  "                  aaaa  ",
  "                 a#...a ",
  "                a#....a ",
  "               a#....a  ",
  "              a#....a   ",
  "             a#....a    ",
  "            a#....a     ",
  "           a#....a      ",
  "          a#....a       ",
  "         a#....a        ",
  "        a#....a         ",
  "       a#....a          ",
  "      aa....a           ",
  "      aa...a            ",
  "    aa.aaaa             ",
  "   a##..a               ",
  "  a##...a               ",
  "  a#...a                ",
  " a#...a                 ",
  "a....a                  ",
  "                        ",
};
