/* XPM */

static const char *
pin_data[] = {
  /* width height num_colors chars_per_pixel x_hot y_hot */
  "16 16 5 1 0 0",

  /* colors */
  ". s symbol1 c #000000 m black",
  "# s symbol2 c #444444 m black",
  "a s symbol3 c #666666 m black",
  "b s symbol4 c #cccccc m white",
  "  s mask c none",

  /* pixels */
  "         ##     ",
  "         ...    ",
  "         ....   ",
  "        #.....  ",
  "       #....... ",
  "   #..#........#",
  "   ............#",
  "   a........#   ",
  "    .......#    ",
  "     .....#     ",
  "   #.b.....     ",
  "   ... ....     ",
  "  #..#  a.#     ",
  "  .#            ",
  " .              ",
  "                ",
};
